<svg xmlns="http://www.w3.org/2000/svg" width="30" height="30">
    <g fill="none" fill-rule="nonzero">
        <path fill="#F0F0F0"
              d="M15 30c8.284 0 15-6.717 15-15 0-8.283-6.715-15-15-15S0 6.717 0 15c0 8.283 6.716 15 15 15Z"/>
        <path fill="#D80027"
              d="M27.783 7.168H14.326V3.25h10a14.994 14.994 0 0 1 3.457 3.917ZM30 15H14.334v-3.916h15.15C29.827 12.361 30 13.678 30 15ZM15 30a14.9 14.9 0 0 0 9.333-3.258H5.667A14.894 14.894 0 0 0 15 30Zm12.8-7.166H2.2a14.842 14.842 0 0 1-1.683-3.916h28.966a14.834 14.834 0 0 1-1.683 3.916Z"/>
        <path fill="#0052B4"
              d="M6.99 2.352h-.024v.016l.023-.016Zm-.026-.018H8.32l-1.278.917.484 1.5-1.275-.917-1.267.917.417-1.294a15.005 15.005 0 0 0-2.9 3.252h.442l-.809.586-.367.644.383 1.192-.724-.527-.5 1.164.416 1.306h1.582l-1.257.927.483 1.5-1.275-.917-.75.55A13.894 13.894 0 0 0 0 15h15V0a14.933 14.933 0 0 0-8.036 2.334Zm.576 11.177.019.015h-.014l-.005-.015ZM7.042 12l.48 1.492-1.272-.908-1.275.917.484-1.5-1.275-.917h1.582l.483-1.5.483 1.5h1.582L7.042 12Zm.009-4.366.483 1.5-1.275-.917-1.275.917.483-1.5-1.275-.917h1.582l.484-1.5.483 1.5h1.582l-1.272.917Zm4.591 4.95 1.275.917-.483-1.5 1.277-.917h-1.582l-.484-1.5-.483 1.5H9.58l1.275.917-.483 1.5 1.27-.917Zm.792-4.95.483 1.5-1.275-.917-1.275.917.483-1.5-1.275-.917h1.582l.484-1.5.483 1.5h1.582l-1.272.917Zm.483-2.867-.483-1.5 1.277-.917h-1.582l-.484-1.5-.483 1.5H9.58l1.275.917-.483 1.5 1.275-.917 1.27.917Z"/>
    </g>
</svg>
