<svg xmlns="http://www.w3.org/2000/svg" width="30" height="30">
    <g fill="none" fill-rule="nonzero">
        <path fill="#FFDA44"
              d="M0 15c0 1.835.33 3.592.933 5.217L15 21.522l14.067-1.305C29.67 18.592 30 16.835 30 15c0-1.835-.33-3.592-.933-5.217L15 8.478.933 9.783A14.968 14.968 0 0 0 0 15Z"/>
        <path fill="#D80027"
              d="M29.067 9.783C26.947 4.07 21.449 0 15 0 8.55 0 3.052 4.07.933 9.783h28.134ZM.933 20.217C3.053 25.93 8.551 30 15 30c6.45 0 11.948-4.07 14.067-9.783H.933Z"/>
    </g>
</svg>
