<svg width="380" height="300" viewBox="0 0 380 300" fill="none" xmlns="http://www.w3.org/2000/svg">
<path d="M309.972 300C299.723 300 291.413 296.399 285.042 289.197C278.67 281.717 275.485 271.745 275.485 259.28C275.485 246.537 281.163 215.097 292.521 164.958C304.155 114.82 309.972 82.8255 309.972 68.9751C309.972 55.1247 304.571 48.1994 293.767 48.1994C278.809 48.1994 262.327 54.8476 244.321 68.1441C242.382 83.1025 236.704 109.28 227.285 146.676C217.867 183.795 211.496 211.357 208.172 229.363C205.125 247.091 203.601 260.803 203.601 270.499C203.601 280.194 203.74 286.15 204.017 288.366C193.213 293.906 173.961 296.676 146.26 296.676H138.366C138.366 273.407 144.875 233.795 157.895 177.839C171.191 120.776 177.839 84.9031 177.839 70.2216C177.839 55.5402 172.715 48.1994 162.465 48.1994C147.507 48.1994 130.055 55.4017 110.111 69.8061C107.064 85.0415 101.385 109.834 93.0748 144.183C74.5152 222.853 65.2355 270.914 65.2355 288.366C54.4321 293.906 35.3186 296.676 7.89474 296.676H0C1.10803 284.211 8.44875 247.645 22.0222 186.981C35.5956 126.039 44.0443 80.4709 47.3684 50.277C47.3684 45.8449 45.8449 40.5817 42.7978 34.4875C40.0277 28.1163 37.1191 22.9917 34.072 19.1136L29.9169 13.2964L31.1634 7.06372C46.6759 2.35457 73.4072 0 111.357 0C114.958 6.6482 116.759 15.0969 116.759 25.3463C116.759 27.5623 116.205 33.3795 115.097 42.7978C146.953 14.2659 175.485 0 200.693 0C212.05 0 221.607 3.87812 229.363 11.6343C237.119 19.3906 242.105 29.5014 244.321 41.9668C277.285 13.9889 305.263 0 328.255 0C342.659 0 354.294 4.70914 363.158 14.1274C372.022 23.5457 376.454 36.7036 376.454 53.6011C376.454 70.4986 370.499 102.77 358.587 150.415C346.953 197.784 341.136 230.886 341.136 249.723C341.136 257.756 342.521 261.773 345.291 261.773C347.784 261.773 354.571 259.003 365.651 253.463L371.468 250.97L379.778 266.344C367.867 276.593 355.817 284.765 343.629 290.859C331.717 296.953 320.499 300 309.972 300ZM76.4543 132.964C76.1773 133.518 76.0388 134.211 76.0388 135.042L76.4543 132.964Z" fill="#E1306C"/>
</svg>
